<?xml version="1.0" standalone="no"?>
<!DOCTYPE svg PUBLIC "-//W3C//DTD SVG 20010904//EN"
 "http://www.w3.org/TR/2001/REC-SVG-20010904/DTD/svg10.dtd">
<svg version="1.0" xmlns="http://www.w3.org/2000/svg"
 width="512.000000pt" height="512.000000pt" viewBox="0 0 512.000000 512.000000"
 preserveAspectRatio="xMidYMid meet">
<metadata>
Created by potrace 1.14, written by Peter Selinger 2001-2017
</metadata>
<g transform="translate(0.000000,512.000000) scale(0.100000,-0.100000)"
fill="#000000" stroke="none">
<path d="M0 2560 l0 -2560 2560 0 2560 0 0 2560 0 2560 -2560 0 -2560 0 0
-2560z m2355 1071 c47 -22 89 -64 104 -104 6 -16 11 -102 11 -198 0 -181 -7
-219 -53 -267 -54 -59 -34 -57 -640 -62 l-559 -5 -19 -24 c-24 -30 -24 -82 0
-112 l19 -24 314 -6 c259 -5 322 -9 368 -24 219 -70 387 -242 435 -447 19 -82
19 -218 0 -293 -55 -215 -230 -393 -446 -452 -58 -16 -120 -18 -627 -18 l-564
0 -24 28 c-23 27 -24 34 -24 176 0 135 2 151 21 175 l20 26 519 0 c328 0 537
4 568 11 58 12 121 61 146 113 21 44 21 128 0 169 -21 42 -61 85 -99 105 -26
15 -78 18 -355 22 l-325 5 -66 28 c-37 16 -92 49 -124 75 -309 249 -215 745
163 862 60 19 94 20 587 20 468 0 524 -2 529 -16 11 -30 6 -131 -7 -142 -9 -8
-178 -12 -528 -14 l-514 -3 -56 -28 c-67 -32 -132 -99 -162 -165 -33 -72 -30
-189 6 -263 32 -66 99 -132 165 -162 44 -21 66 -22 372 -27 l326 -5 66 -33
c137 -67 211 -187 212 -343 1 -79 -2 -90 -37 -161 -43 -88 -102 -146 -187
-187 l-55 -26 -507 -3 -508 -3 0 -30 0 -30 508 3 c503 3 507 3 564 26 123 50
223 153 264 274 27 78 25 215 -5 290 -46 119 -139 212 -261 263 -40 17 -82 20
-370 25 l-325 5 -55 31 c-62 34 -113 100 -131 167 -35 129 57 283 188 316 27
7 230 11 566 11 469 0 526 2 531 16 8 20 8 238 0 258 -6 14 -64 16 -558 16
-602 0 -608 0 -724 -59 -121 -61 -221 -171 -268 -296 -32 -84 -43 -229 -24
-318 40 -195 209 -371 407 -422 44 -12 123 -15 343 -15 259 0 289 -2 327 -20
106 -48 112 -202 10 -258 -29 -15 -86 -17 -589 -22 l-558 -5 -32 -33 -33 -32
-3 -175 c-4 -196 3 -226 61 -260 30 -19 57 -20 542 -23 536 -3 649 2 758 39
93 30 193 94 266 169 76 76 121 148 159 252 25 67 27 86 27 218 -1 138 -2 149
-32 228 -65 168 -180 299 -328 372 -137 68 -165 72 -500 79 -291 6 -300 7
-300 26 0 20 7 20 320 20 l320 0 80 -28 c295 -104 488 -356 503 -658 6 -130
-13 -228 -68 -344 -90 -193 -231 -320 -435 -392 l-80 -28 -603 -3 c-594 -3
-605 -3 -647 18 -25 12 -55 38 -71 62 -29 41 -29 43 -32 212 -4 191 2 228 51
283 57 65 41 63 632 63 590 0 582 -1 604 61 14 41 -8 95 -44 109 -15 6 -144
10 -304 10 -244 0 -287 2 -355 20 -212 54 -367 202 -442 420 -15 43 -19 82
-18 180 0 109 4 134 26 192 73 193 212 328 405 395 42 15 119 17 631 20 l582
4 25 -25 c24 -25 25 -28 25 -175 0 -82 -3 -157 -6 -166 -17 -44 -34 -45 -591
-45 l-528 0 -52 -24 c-161 -75 -144 -316 26 -374 23 -8 124 -12 306 -12 150 0
297 -4 326 -10 85 -16 193 -74 259 -140 238 -238 172 -643 -130 -794 -108 -54
-151 -57 -695 -54 l-490 3 0 85 0 85 525 5 525 5 57 28 c65 32 121 90 152 156
16 35 21 66 21 131 0 73 -4 93 -28 142 -30 62 -83 115 -149 150 -41 22 -55 23
-363 29 -176 3 -334 11 -350 16 -238 80 -345 321 -239 538 36 74 125 156 201
187 58 23 61 23 556 26 l497 3 0 30 0 29 -467 0 c-508 0 -553 -4 -653 -55
-160 -81 -261 -281 -230 -456 33 -192 180 -338 370 -368 36 -6 185 -11 333
-11 251 0 270 -1 312 -21 60 -28 129 -106 145 -164 16 -57 8 -140 -19 -193
-26 -51 -99 -115 -149 -130 -28 -9 -191 -12 -563 -12 -288 0 -530 -4 -537 -8
-9 -7 -12 -43 -10 -148 l3 -139 560 0 c523 0 564 1 615 19 104 36 174 78 241
145 175 175 212 426 97 655 -42 83 -154 193 -238 234 -109 53 -172 62 -480 62
-307 0 -323 3 -367 69 -42 63 -21 153 46 198 l34 23 539 0 c584 0 583 0 626
55 21 26 22 38 22 211 l0 184 -34 38 -34 37 -604 0 -603 0 -80 -28 c-296 -104
-478 -370 -463 -676 15 -278 198 -520 462 -608 79 -26 88 -27 391 -32 l310 -6
0 -25 0 -25 -300 0 c-343 0 -367 4 -524 81 -255 126 -419 412 -398 696 9 110
23 160 79 277 42 88 62 116 131 186 119 119 249 189 399 214 29 5 305 9 613
10 525 1 562 -1 600 -18z m2116 -9 c39 -20 62 -41 84 -77 29 -47 30 -52 33
-195 4 -183 -4 -219 -67 -281 -36 -37 -57 -49 -99 -58 -36 -7 -230 -11 -592
-11 l-540 0 0 -85 0 -84 513 -3 512 -3 46 -27 c25 -15 59 -46 75 -69 29 -42
29 -45 32 -198 5 -212 -16 -273 -111 -324 -42 -22 -48 -22 -552 -27 l-510 -5
-5 -286 c-5 -281 -5 -286 -29 -321 -13 -19 -40 -46 -59 -59 -34 -23 -44 -24
-218 -27 -165 -3 -186 -1 -221 16 -48 25 -78 57 -98 104 -23 56 -23 1594 0
1683 44 167 179 304 344 347 59 15 136 17 737 17 l672 1 53 -28z"/>
<path d="M3007 3570 c-118 -37 -210 -119 -264 -236 l-28 -59 -3 -820 c-2 -799
-2 -821 17 -852 39 -63 57 -68 242 -68 183 0 194 3 243 69 20 26 21 44 26 318
5 272 6 291 24 304 17 12 105 14 523 14 487 0 505 1 544 20 70 36 79 62 79
240 0 183 -9 211 -80 248 -44 22 -45 22 -567 22 l-523 0 0 145 0 145 594 2
c585 3 595 3 623 24 15 11 38 36 51 54 20 31 22 44 22 184 0 138 -2 154 -23
190 -45 80 -7 76 -767 75 -631 0 -679 -1 -733 -19z m1429 -74 l34 -34 0 -136
0 -136 -29 -32 -29 -33 -616 -3 -616 -2 0 -205 0 -205 556 -2 556 -3 29 -33
c29 -32 29 -33 29 -162 0 -79 -5 -139 -12 -155 -25 -55 -25 -55 -568 -55 -425
0 -505 -2 -530 -15 -60 -31 -60 -32 -60 -347 l0 -287 -24 -28 c-24 -28 -24
-28 -169 -31 -159 -4 -201 6 -212 51 -3 12 -4 380 -3 817 l3 795 29 55 c34 67
107 144 161 172 89 47 85 47 779 47 l658 1 34 -34z"/>
<path d="M3060 3461 c-90 -28 -184 -113 -216 -199 -17 -44 -19 -99 -22 -807
-1 -418 0 -770 3 -783 5 -22 7 -23 148 -20 l142 3 5 290 c5 309 8 323 58 368
49 44 71 46 594 47 l497 0 15 22 c12 17 16 48 16 123 0 75 -4 106 -16 123
l-15 22 -552 0 c-484 0 -555 2 -575 16 -22 15 -22 19 -22 248 0 213 2 234 18
249 17 15 75 17 633 17 465 0 618 3 627 12 8 8 12 52 12 133 0 81 -4 125 -12
133 -9 9 -169 12 -663 11 -357 0 -661 -4 -675 -8z m1278 -63 c7 -7 12 -39 12
-73 0 -34 -5 -66 -12 -73 -9 -9 -157 -12 -603 -12 -572 0 -591 -1 -623 -20
-18 -11 -37 -32 -42 -46 -6 -14 -10 -135 -10 -269 l0 -245 29 -32 29 -33 552
-5 c475 -4 552 -7 560 -20 14 -22 12 -113 -2 -133 -12 -15 -60 -17 -508 -19
-490 -3 -495 -3 -537 -25 -50 -27 -100 -86 -113 -133 -6 -19 -10 -143 -10
-274 0 -279 1 -276 -87 -276 -40 0 -58 5 -73 20 -21 21 -21 28 -18 748 l3 727
23 47 c28 56 111 134 156 147 50 15 1259 14 1274 -1z"/>
<path d="M3089 3344 c-56 -17 -123 -85 -138 -140 -7 -26 -11 -272 -11 -736 l0
-698 29 0 30 0 3 248 c3 237 4 249 27 292 30 58 76 106 126 133 39 21 52 22
530 27 l490 5 3 28 3 27 -508 0 c-335 0 -522 4 -548 11 -22 6 -53 23 -69 37
-53 49 -56 70 -56 334 0 214 3 248 19 283 10 22 28 48 39 58 50 45 66 46 670
47 l573 0 -3 28 -3 27 -580 2 c-478 1 -588 -1 -626 -13z"/>
</g>
</svg>
