<?xml version="1.0" standalone="no"?>
<!DOCTYPE svg PUBLIC "-//W3C//DTD SVG 20010904//EN"
 "http://www.w3.org/TR/2001/REC-SVG-20010904/DTD/svg10.dtd">
<svg version="1.0" xmlns="http://www.w3.org/2000/svg"
 width="700.000000pt" height="700.000000pt" viewBox="0 0 700.000000 700.000000"
 preserveAspectRatio="xMidYMid meet">
<metadata>
Created by potrace 1.14, written by Peter Selinger 2001-2017
</metadata>
<g transform="translate(0.000000,700.000000) scale(0.100000,-0.100000)"
fill="#000000" stroke="none">
<path d="M4006 6599 c-282 -30 -557 -164 -876 -429 -98 -82 -472 -453 -410
-407 107 79 222 111 454 127 296 21 538 -29 749 -154 157 -94 252 -196 332
-361 96 -194 128 -376 107 -597 -33 -354 -143 -522 -562 -861 -59 -48 -9 -16
137 86 540 378 902 746 1077 1095 98 195 137 354 137 557 -1 279 -83 488 -260
665 -161 160 -377 255 -640 280 -117 11 -131 11 -245 -1z"/>
<path d="M2414 5483 c-374 -371 -555 -611 -658 -870 -59 -149 -79 -254 -78
-423 0 -127 4 -159 30 -260 47 -185 77 -252 270 -620 189 -361 283 -647 285
-865 2 -201 -50 -329 -196 -482 -85 -90 -88 -94 -42 -63 223 150 535 385 646
487 449 407 547 820 319 1344 -21 48 -90 184 -154 302 -245 452 -342 689 -381
932 -37 228 -5 408 111 623 24 45 42 82 40 82 -2 0 -89 -84 -192 -187z"/>
<path d="M5242 3150 c-255 -230 -466 -421 -469 -423 -2 -3 35 -54 83 -113 193
-239 313 -472 349 -681 27 -157 13 -348 -35 -475 l-18 -48 51 42 c170 142 493
480 621 650 264 351 305 722 121 1088 -36 71 -185 310 -223 357 -17 21 -19 20
-480 -397z"/>
<path d="M2100 1864 c-140 -30 -260 -87 -425 -204 -244 -174 -609 -524 -952
-915 -120 -137 -111 -133 48 18 218 210 329 285 474 322 89 23 281 30 420 15
252 -25 419 -85 915 -325 604 -293 768 -351 1068 -375 525 -42 939 209 1363
825 42 61 79 115 82 121 4 7 -26 -10 -66 -36 -39 -27 -108 -61 -152 -76 -75
-27 -90 -28 -250 -28 -287 -1 -425 39 -1060 304 -596 249 -849 331 -1107 359
-130 15 -279 13 -358 -5z"/>
</g>
</svg>
