<?xml version="1.0" standalone="no"?>
<!DOCTYPE svg PUBLIC "-//W3C//DTD SVG 20010904//EN"
 "http://www.w3.org/TR/2001/REC-SVG-20010904/DTD/svg10.dtd">
<svg version="1.0" xmlns="http://www.w3.org/2000/svg"
 width="700.000000pt" height="700.000000pt" viewBox="0 0 700.000000 700.000000"
 preserveAspectRatio="xMidYMid meet">
<metadata>
Created by potrace 1.14, written by Peter Selinger 2001-2017
</metadata>
<g transform="translate(0.000000,700.000000) scale(0.100000,-0.100000)"
fill="#000000" stroke="none">
<path d="M2670 6242 c0 -252 -1 -270 -19 -286 -11 -10 -31 -16 -47 -14 -24 2
-35 15 -64 68 -52 95 -91 149 -154 212 -57 57 -157 130 -182 132 -17 1 -1055
-1015 -1048 -1026 3 -5 28 12 55 37 91 85 201 113 314 80 104 -30 170 -88 217
-191 l23 -49 3 -1786 2 -1787 -569 -563 c-314 -309 -568 -566 -565 -571 3 -5
28 12 55 37 27 26 71 56 97 68 l47 22 1695 3 1695 2 922 922 c833 833 925 928
950 983 l28 60 5 725 5 725 24 49 c13 27 51 77 84 112 32 35 55 64 51 64 -5 0
-630 -617 -1388 -1370 l-1379 -1370 -294 0 -295 0 -29 29 c-20 21 -29 39 -29
62 0 31 37 70 424 459 280 281 432 440 448 470 l23 45 5 1210 c4 908 8 1215
17 1230 6 11 106 114 221 229 l210 209 49 -5 c103 -10 204 -85 251 -186 l27
-57 0 -395 c0 -444 3 -423 -78 -507 -22 -24 -38 -46 -34 -49 4 -4 236 222 517
501 l510 509 0 613 c0 402 -3 613 -10 613 -6 0 -10 -84 -10 -231 0 -140 -4
-238 -10 -250 -7 -12 -21 -19 -40 -19 -24 0 -39 13 -89 74 -71 87 -158 156
-256 202 -143 68 -139 68 -678 72 l-488 3 -535 -530 c-527 -523 -536 -531
-575 -531 -29 0 -47 7 -64 25 l-25 24 0 581 c0 380 -3 580 -10 580 -6 0 -10
-96 -10 -268z m1374 -791 c35 -33 42 -75 19 -109 -34 -51 -1228 -1231 -1256
-1241 -37 -14 -73 -5 -97 26 -19 25 -20 42 -20 522 l0 496 168 168 167 168
497 -3 496 -3 26 -24z m-1264 -2816 l-90 -90 0 700 0 700 88 88 87 87 3 -697
2 -698 -90 -90z m2410 389 l25 -24 3 -671 2 -670 -61 -65 -62 -64 -679 0 -680
0 -29 29 c-20 21 -29 40 -29 63 -1 31 49 83 696 726 383 381 706 697 718 702
30 13 67 3 96 -26z m-2375 -458 c18 -8 38 -23 44 -34 7 -14 11 -158 11 -439
l0 -419 -73 -72 -72 -72 -424 0 -423 0 -29 29 c-20 21 -29 39 -29 62 0 31 39
72 448 482 373 375 477 472 510 477 1 0 18 -6 37 -14z"/>
</g>
</svg>
