<svg xmlns="http://www.w3.org/2000/svg" fill="none" viewBox="0 0 766 283"><title>Enter Lenis</title><path fill="#EFEFEF" d="M0.781882 120H137.422V91.84H32.9419V72.8H125.902V47.2H32.9419V28.16H135.022V-9.53674e-06H0.781882V120ZM148.951 120H181.111V36.96H183.511L257.431 120H297.111V-9.53674e-06H265.111V82.4H262.391L188.311 -9.53674e-06H148.951V120ZM365.887 120H399.167V28.48H457.247V-9.53674e-06H307.807V28.48H365.887V120ZM467.944 120H604.584V91.84H500.104V72.8H593.064V47.2H500.104V28.16H602.184V-9.53674e-06H467.944V120ZM616.113 120H648.273V78.56H715.633C727.313 78.56 731.633 81.6 731.633 95.52C731.633 108.16 731.953 115.36 733.233 120H765.393C764.113 110.24 763.473 104.16 763.473 94.24C763.473 77.44 756.593 66.56 741.233 64.64V62.88C756.433 59.84 763.793 51.2 763.793 34.72C763.793 12.32 748.913 -9.53674e-06 721.393 -9.53674e-06H616.113V120ZM648.273 53.12V25.44H713.233C724.753 25.44 729.233 29.12 729.233 39.2C729.233 49.44 724.913 53.12 713.553 53.12H648.273ZM65.3131 280H189.793V251.36H98.5931V160H65.3131V280ZM200.513 280H337.153V251.84H232.673V232.8H325.633V207.2H232.673V188.16H334.753V160H200.513V280ZM348.682 280H380.842V196.96H383.242L457.162 280H496.842V160H464.842V242.4H462.122L388.042 160H348.682V280ZM511.538 280H544.818V160H511.538V280ZM621.951 282.88H635.551C682.751 282.88 701.791 270.4 701.791 244.64C701.791 222.08 687.071 210.88 653.631 206.72L612.991 201.6C599.871 200 595.231 197.28 595.231 192.32C595.231 185.12 604.351 181.92 623.551 181.92H634.271C655.711 181.92 663.711 188 662.911 198.72H696.511C697.151 171.2 678.111 157.12 635.231 157.12H621.631C581.951 157.12 560.991 168.96 560.991 194.56C560.991 214.08 573.471 223.68 604.991 228.32L645.951 234.4C662.911 236.96 667.391 239.36 667.391 245.44C667.391 254.72 656.831 258.08 633.951 258.08H624.031C597.471 258.08 591.391 253.44 590.271 237.92H554.911C554.751 270.08 575.551 282.88 621.951 282.88Z"/></svg>