<svg xmlns="http://www.w3.org/2000/svg" fill="none" viewBox="0 0 24 24"><title>GitHub</title><path fill="currentColor" fill-rule="evenodd" d="M12.0153 0.0435275C9.16289 0.0406734 6.40272 1.03792 4.22938 2.85656C2.05603 4.6752 0.611577 7.19635 0.154879 9.96821C-0.30182 12.7401 0.25909 15.5814 1.73708 17.9832C3.21506 20.3849 5.51353 22.1899 8.22056 23.0748C8.8174 23.1836 9.03845 22.8137 9.03845 22.5018C9.03845 22.1898 9.03845 21.479 9.03845 20.4924C5.70059 21.2178 4.99323 18.911 4.99323 18.911C4.77081 18.1961 4.29831 17.5819 3.65956 17.1774C2.57642 16.452 3.74798 16.452 3.74798 16.452C4.12767 16.5048 4.49017 16.6419 4.80804 16.8531C5.12591 17.0642 5.39082 17.3438 5.5827 17.6706C5.74573 17.9617 5.96552 18.2181 6.22948 18.4253C6.49344 18.6325 6.79637 18.7863 7.12087 18.878C7.44537 18.9697 7.78505 18.9973 8.12044 18.9594C8.45583 18.9215 8.78032 18.8188 9.07528 18.6572C9.12153 18.0604 9.38285 17.4996 9.81211 17.0758C7.14478 16.7784 4.34481 15.7628 4.34481 11.2364C4.3265 10.0634 4.76707 8.9284 5.57532 8.06639C5.21462 7.04662 5.25671 5.93059 5.69322 4.93994C5.69322 4.93994 6.70268 4.62077 8.99423 6.15135C10.962 5.61946 13.039 5.61946 15.0068 6.15135C17.2983 4.62077 18.3004 4.93994 18.3004 4.93994C18.7415 5.92918 18.7863 7.04603 18.4257 8.06639C19.234 8.9284 19.6745 10.0634 19.6562 11.2364C19.6562 15.7773 16.8489 16.7711 14.1742 17.0395C14.461 17.3234 14.6824 17.6646 14.8236 18.04C14.9647 18.4155 15.0221 18.8165 14.9921 19.2157C14.9921 20.7971 14.9921 22.0738 14.9921 22.4582C14.9921 22.8427 15.2057 23.1401 15.8173 23.0313C18.5158 22.138 20.8043 20.3301 22.2745 17.93C23.7447 15.5299 24.3011 12.6937 23.8444 9.92718C23.3877 7.1607 21.9477 4.64389 19.781 2.82565C17.6144 1.00741 14.8622 0.0059905 12.0153 0V0.0435275Z" clip-rule="evenodd"/></svg>