<svg xmlns="http://www.w3.org/2000/svg" fill="none" viewBox="0 0 1358 335"><g fill="#FF98A2" clip-path="url(#a)"><path d="M872.5 268.841L871.786 268.127L869.101 270.822C858.522 281.401 840.24 275.327 838.37 260.484C837.992 257.432 837.807 254.358 837.817 251.283V0.352051H836.861V25.3516C836.86 26.001 836.651 26.6328 836.262 27.1531C835.874 27.6735 835.327 28.0546 834.705 28.2399C834.083 28.4251 833.417 28.4046 832.807 28.1813C832.197 27.9581 831.676 27.5441 831.32 27.0008C827.674 21.3744 822.678 16.7501 816.787 13.5497C810.895 10.3494 804.297 8.67471 797.592 8.67843H721.558L663.091 67.1449C662.388 67.8464 661.492 68.3237 660.517 68.5165C659.542 68.7092 658.532 68.6088 657.614 68.2279C656.696 67.847 655.912 67.2027 655.36 66.3763C654.808 65.55 654.514 64.5787 654.514 63.585V0.352051H653.508V29.2232C653.509 29.9104 653.275 30.5775 652.846 31.1138C652.416 31.6502 651.816 32.0238 651.145 32.1727C650.474 32.3217 649.772 32.2371 649.156 31.933C648.54 31.6289 648.046 31.1234 647.756 30.5003C639.711 13.2339 627.392 8.69857 627.392 8.69857L569.71 65.7068L570.424 66.4208L572.968 63.9067C583.547 53.4685 601.598 59.5122 603.609 74.2445C604.04 77.5015 604.248 80.784 604.233 84.0693V270.973L541.05 334.155L541.764 334.859L544.942 331.691C546.627 330.053 548.622 328.764 550.809 327.901C552.996 327.038 555.332 326.617 557.683 326.663H681.836L730.387 277.459L738.542 269.303L737.839 268.589L734.691 271.737C733.011 273.419 731.015 274.754 728.819 275.665C726.622 276.576 724.268 277.046 721.89 277.046H672.232C671.237 277.046 670.265 276.751 669.438 276.198C668.611 275.645 667.967 274.859 667.587 273.939C667.207 273.02 667.108 272.008 667.303 271.033C667.498 270.057 667.978 269.161 668.683 268.459L779.008 158.133C779.712 157.432 780.606 156.955 781.58 156.762C782.554 156.568 783.563 156.668 784.481 157.048C785.398 157.427 786.182 158.07 786.735 158.895C787.288 159.72 787.584 160.69 787.586 161.682V270.158C787.586 316.678 814.738 326.613 814.738 326.613L816.327 325.024L872.5 268.841ZM673.801 57.8227H726.626C727.622 57.821 728.595 58.1149 729.424 58.6673C730.253 59.2197 730.898 60.0056 731.28 60.9255C731.661 61.8454 731.761 62.8577 731.566 63.8342C731.371 64.8107 730.891 65.7075 730.186 66.4107L663.091 133.545C662.388 134.25 661.492 134.731 660.515 134.926C659.538 135.12 658.526 135.021 657.606 134.639C656.686 134.258 655.9 133.612 655.348 132.784C654.796 131.955 654.502 130.981 654.503 129.986C654.503 111.07 654.503 77.1507 654.503 77.1507L673.801 57.8227ZM654.463 143.551L665.233 132.801V209.972L654.443 220.762L654.463 143.551ZM608.124 268.499L656.676 219.948C657.379 219.246 658.275 218.769 659.25 218.576C660.225 218.383 661.235 218.484 662.153 218.865C663.07 219.246 663.855 219.89 664.407 220.716C664.959 221.543 665.253 222.514 665.253 223.508V268.378C665.25 269.71 664.719 270.987 663.775 271.928L658.626 277.087H611.664C610.67 277.084 609.699 276.788 608.874 276.234C608.048 275.68 607.406 274.894 607.027 273.975C606.648 273.056 606.55 272.045 606.746 271.07C606.941 270.096 607.421 269.201 608.124 268.499V268.499ZM715.524 208.061V82.5207L740.222 57.8227H769.505C774.306 57.8227 778.91 59.7298 782.305 63.1244C785.699 66.519 787.606 71.1231 787.606 75.9238V148.207L724.162 211.651C723.46 212.376 722.556 212.873 721.568 213.077C720.58 213.281 719.553 213.183 718.622 212.796C717.69 212.408 716.896 211.75 716.344 210.905C715.791 210.061 715.506 209.07 715.524 208.061V208.061Z"/><path d="M1111.8 268.8 1111.1 268.1 1107.5 271.7C1104.1 275.1 1099.5 277 1094.7 277H999.6C998.6 277 997.6 276.8 996.8 276.2 996 275.6 995.3 274.9 995 273.9 994.6 273 994.5 272 994.7 271 994.9 270.1 995.3 269.2 996.1 268.5L1054.3 210.2 1053.6 209.5 1049 214.1C1048.6 214.5 1048 214.8 1047.5 214.9 1046.9 215 1046.3 215 1045.7 214.7 1045.2 214.5 1044.7 214.1 1044.4 213.6 1044 213.1 1043.9 212.5 1043.9 212V63.9L1050.2 57.5 1085.9 57.5 1142.4 1 1141.7.2 1138.6 3.4C1136.9 5.1 1134.9 6.4 1132.7 7.3 1130.5 8.2 1128.1 8.7 1125.7 8.7H926.1L869 65.7 869.7 66.4 873.2 63C876.6 59.7 881.1 57.8 885.9 57.8L975.7 57.7C976.7 57.6 977.6 57.9 978.5 58.5 979.3 59 979.9 59.8 980.3 60.7 980.7 61.7 980.8 62.7 980.6 63.7 980.4 64.6 979.9 65.5 979.2 66.2L921.7 123.8 922.5 124.5 927.1 119.9C927.5 119.4 928 119.2 928.6 119 929.2 118.9 929.8 119 930.4 119.2 930.9 119.4 931.4 119.8 931.7 120.3 932 120.8 932.2 121.4 932.2 122V269.7L924.8 277.1H894.1L836.3 334.2 837.1 334.9 840.1 331.9C843.5 328.6 848 326.7 852.8 326.7H1054.4L1111.8 268.8ZM989.3 57.7 1036.6 57.6C1037.6 57.6 1038.6 57.9 1039.4 58.4 1040.2 59 1040.9 59.8 1041.3 60.7 1041.7 61.6 1041.8 62.6 1041.6 63.6 1041.4 64.6 1040.9 65.5 1040.2 66.2L991.1 115.3C990.4 116 989.5 116.5 988.5 116.7 987.5 116.9 986.5 116.8 985.6 116.4 984.7 116 983.9 115.4 983.3 114.5 982.8 113.7 982.5 112.7 982.5 111.7V64.5L989.3 57.7ZM982.5 125.3 993.5 114.2V208.4L982.5 219.4V125.3ZM985 218.4C985.7 217.7 986.6 217.2 987.6 217 988.5 216.8 989.6 216.9 990.5 217.3 991.4 217.7 992.2 218.3 992.7 219.1 993.3 220 993.6 220.9 993.6 221.9V269.5L986 277.1H938.4C937.4 277.1 936.5 276.8 935.6 276.2 934.8 275.7 934.2 274.9 933.8 274 933.4 273 933.3 272 933.5 271.1 933.7 270.1 934.2 269.2 934.9 268.5L985 218.4ZM562.7 268.4 562 267.7 558.1 271.6C556.4 273.3 554.4 274.7 552.2 275.6 550 276.5 547.6 276.9 545.3 276.9H439.2C438.2 276.9 437.2 276.6 436.4 276.1 435.6 275.5 434.9 274.7 434.5 273.8 434.2 272.9 434.1 271.9 434.3 270.9 434.4 270 434.9 269.1 435.6 268.4L570.8 133.2 570.1 132.5 565.3 137.2C563.6 138.9 561.6 140.3 559.4 141.2 557.2 142.1 554.8 142.5 552.4 142.5 550 142.5 547.7 142 545.5 141.1 543.3 140.2 541.3 138.8 539.6 137.1L506.8 103.6C505.9 102.7 505.3 101.4 505.3 100.1 505.3 98.8 505.9 97.5 506.8 96.6L602.3 1.1 601.6.4 598.5 3.5C596.8 5.2 594.8 6.5 592.6 7.4 590.4 8.3 588 8.8 585.6 8.8H447.4L398.2 58 389.8 66.4C389.1 67.1 388.2 67.5 387.3 67.7 386.3 67.9 385.3 67.8 384.4 67.4 383.4 67.1 382.7 66.4 382.1 65.6 381.6 64.8 381.3 63.8 381.3 62.8V.5H380.3V29.2C380.2 29.9 380 30.6 379.6 31.1 379.2 31.6 378.6 32 377.9 32.2 377.2 32.3 376.5 32.2 375.9 31.9 375.3 31.6 374.8 31.1 374.5 30.5 366.5 13.2 354.1 8.7 354.1 8.7L296.5 65.7 297.2 66.4 299.7 63.9C310.3 53.5 328.3 59.5 330.4 74.2 330.8 77.5 331 80.8 331 84.1V270.9L267.9 334 268.6 334.7 271.5 331.7C274.9 328.3 279.5 326.4 284.3 326.4H504.5L562.7 268.4ZM498.9 203.7 425.6 276.9H396.6C395.6 276.9 394.6 276.6 393.8 276.1 393 275.5 392.3 274.7 392 273.8 391.6 272.9 391.5 271.9 391.7 270.9 391.9 270 392.4 269.1 393.1 268.4L435.5 226C437.1 224.3 438.5 222.3 439.4 220.1 440.3 217.9 440.8 215.5 440.8 213.1L440.7 162.6 449.4 153.9C449.9 153.4 450.5 153 451.1 152.8 451.7 152.5 452.3 152.4 453 152.4 453.7 152.4 454.3 152.5 454.9 152.8 455.5 153 456.1 153.4 456.6 153.9L498.9 196.5C499.3 197 499.7 197.6 500 198.2 500.2 198.8 500.4 199.4 500.4 200.1 500.4 200.8 500.2 201.4 500 202 499.7 202.6 499.4 203.2 498.9 203.7V203.7ZM440.7 149.1V82.4L465.4 57.7 532.3 57.5C533.3 57.5 534.3 57.8 535.1 58.3 535.9 58.9 536.6 59.7 537 60.6 537.3 61.5 537.4 62.5 537.3 63.5 537.1 64.5 536.6 65.4 535.9 66.1L449.3 152.6C448.6 153.3 447.7 153.8 446.8 154 445.8 154.2 444.8 154.1 443.8 153.7 442.9 153.3 442.1 152.7 441.6 151.9 441 151 440.7 150.1 440.7 149.1V149.1ZM399.7 57.8 451.8 57.7C452.8 57.7 453.8 58 454.6 58.5 455.4 59.1 456.1 59.9 456.5 60.8 456.8 61.7 456.9 62.7 456.7 63.7 456.6 64.7 456.1 65.6 455.4 66.3L389.9 131.8C389.2 132.5 388.3 133 387.3 133.2 386.4 133.4 385.3 133.3 384.4 132.9 383.5 132.5 382.7 131.9 382.2 131 381.6 130.2 381.3 129.2 381.3 128.2V78.3C381.3 77 381.9 75.7 382.8 74.8L399.7 57.8ZM381.3 141.7 390.4 132.7V211.5L381.3 220.7 381.3 141.7ZM390.5 225V267.4C390.5 268.8 390 270.1 389 271L383.1 276.9H338.5C337.5 276.9 336.6 276.6 335.7 276.1 334.9 275.5 334.3 274.8 333.9 273.8 333.5 272.9 333.4 271.9 333.6 270.9 333.8 270 334.3 269.1 335 268.4L381.9 221.5C382.6 220.7 383.5 220.3 384.5 220.1 385.4 219.9 386.4 220 387.4 220.3 388.3 220.7 389.1 221.4 389.6 222.2 390.2 223 390.5 224 390.5 225V225Z"/><path d="M312 124.4 159.6 276.9H124.4C123.6 276.9 122.8 276.6 122.3 276.1 121.7 275.5 121.3 274.8 121.2 274.1 121.1 273.3 121.3 272.5 121.7 271.8 122.2 271.2 122.8 270.7 123.6 270.5V270.7L168.6 225.7C170.2 224 171.6 222 172.5 219.8 173.4 217.6 173.9 215.3 173.9 212.9V84.7C173.9 84 174 83.3 174.2 82.7 174.5 82.1 174.9 81.6 175.3 81.1L198.6 57.8C203.4 57.9 208 59.8 211.3 63.2 214.7 66.6 216.6 71.1 216.6 75.9V112.3C216.6 113.9 216.3 115.4 215.7 116.9 215.1 118.4 214.2 119.7 213.1 120.8L209.8 124.1 210.4 124.9 266.9 68.5V.4H265.8V25.4C265.8 26 265.6 26.6 265.2 27.2 264.9 27.7 264.3 28.1 263.7 28.2 263.1 28.4 262.4 28.4 261.8 28.2 261.2 28 260.7 27.6 260.3 27 256.7 21.4 251.7 16.8 245.8 13.6 239.9 10.4 233.3 8.7 226.6 8.7H179.3L138 50.2 121.9 66.3C121.2 67 120.3 67.5 119.3 67.7 118.4 67.8 117.3 67.7 116.4 67.4 115.5 67 114.7 66.3 114.2 65.5 113.6 64.7 113.3 63.7 113.3 62.7V.4H112.3V29.2C112.3 29.9 112.1 30.6 111.7 31.1 111.2 31.7 110.6 32 110 32.2 109.3 32.3 108.6 32.2 108 31.9 107.3 31.6 106.9 31.1 106.6 30.5 98.5 13.2 86.2 8.7 86.2 8.7L28.5 65.7 29.2 66.4 31.8 63.9C42.4 53.5 60.4 59.5 62.4 74.3 62.8 77.5 63.1 80.8 63 84.1V270.7L-.1 333.8.6 334.5 3.1 332C6.5 328.6 11.1 326.7 15.9 326.7H198.4L297.8 226.7C301.2 223.3 303.1 218.7 303.1 213.9V142.2C303.1 137.4 305 132.8 308.4 129.4L312.7 125.1 312 124.4ZM113.4 128.9V76.2L131.8 57.8H185C186 57.8 187 58.1 187.8 58.7 188.6 59.2 189.3 60 189.6 60.9 190 61.8 190.1 62.9 189.9 63.8 189.7 64.8 189.2 65.7 188.5 66.4L121.9 133C121.2 133.7 120.3 134.2 119.4 134.4 118.4 134.6 117.4 134.5 116.5 134.1 115.5 133.7 114.7 133.1 114.2 132.3 113.6 131.4 113.4 130.4 113.4 129.5L113.4 128.9ZM113.4 143 123.5 132.8V210.2L113.4 220.4 113.4 143ZM70.5 276.8C69.5 276.8 68.5 276.6 67.7 276 66.8 275.4 66.2 274.7 65.8 273.7 65.4 272.8 65.3 271.8 65.5 270.8 65.7 269.9 66.2 269 66.9 268.3L115 220.2C115.7 219.5 116.6 219 117.6 218.8 118.5 218.6 119.6 218.7 120.5 219.1 121.4 219.5 122.2 220.1 122.7 220.9 123.3 221.8 123.6 222.7 123.6 223.7V269.1L115.8 276.8H70.5ZM252.9 269C252.9 269.8 252.6 270.5 252 271.1L247.1 276C246.6 276.5 245.8 276.8 245 276.8H173.1C172.1 276.8 171.2 276.6 170.3 276 169.5 275.4 168.9 274.7 168.5 273.7 168.1 272.8 168 271.8 168.2 270.8 168.4 269.9 168.9 269 169.6 268.3L244.3 193.5C245 192.8 245.9 192.3 246.9 192.1 247.9 192 248.9 192.1 249.8 192.4 250.7 192.8 251.5 193.5 252.1 194.3 252.6 195.1 252.9 196.1 252.9 197.1V269ZM1322.1 128.2 1252.3 117.8C1251.3 117.7 1250.5 117.3 1249.8 116.7 1249.1 116.1 1248.5 115.3 1248.2 114.4 1247.9 113.5 1247.9 112.6 1248.1 111.7 1248.3 110.8 1248.8 109.9 1249.5 109.3L1358 .7 1357.3 0 1353.9 3.4C1352.2 5.1 1350.2 6.4 1348 7.3 1345.8 8.2 1343.4 8.7 1341.1 8.7H1207.4L1100.1 116V123.8C1100.1 131.9 1103 139.7 1108.3 145.8 1113.6 151.9 1120.9 156 1128.9 157.2V157.2C1129.7 157.3 1130.4 157.6 1131 158.1 1131.6 158.6 1132.1 159.3 1132.3 160.1 1132.5 160.8 1132.6 161.6 1132.4 162.4 1132.2 163.2 1131.8 163.9 1131.3 164.4L1078.2 217.5 1078.9 218.2 1082 215.1C1083.4 213.8 1085 212.8 1086.8 212.2 1088.6 211.6 1090.5 211.4 1092.4 211.7L1177.7 224.6C1178.6 224.7 1179.5 225.1 1180.2 225.7 1180.9 226.3 1181.5 227.1 1181.7 228 1182 228.8 1182.1 229.8 1181.9 230.7 1181.6 231.6 1181.2 232.4 1180.5 233.1L1079 334.2 1079.8 334.9 1082.7 332C1086.1 328.6 1090.7 326.7 1095.5 326.7H1242.7C1242.9 326.7 1243.2 326.6 1243.4 326.4L1357 213.9V168.7C1357 158.9 1353.4 149.4 1347 142 1340.6 134.6 1331.8 129.7 1322.1 128.2V128.2ZM1241.2 116.2 1198.7 109.8C1197.7 109.7 1196.9 109.3 1196.2 108.7 1195.5 108.1 1194.9 107.3 1194.6 106.4 1194.3 105.5 1194.3 104.6 1194.5 103.7 1194.7 102.8 1195.2 101.9 1195.8 101.3L1239.5 57.6 1287.6 57.5C1288.6 57.5 1289.6 57.8 1290.4 58.4 1291.3 58.9 1291.9 59.7 1292.3 60.6 1292.7 61.5 1292.8 62.5 1292.6 63.5 1292.4 64.5 1291.9 65.4 1291.2 66.1L1241.2 116.2ZM1162.5 104.4C1159.8 104 1157.4 102.7 1155.6 100.6 1153.8 98.5 1152.9 95.9 1152.9 93.2V64.3L1159.4 57.9 1225.9 57.7C1226.9 57.7 1227.8 58 1228.7 58.5 1229.5 59.1 1230.1 59.9 1230.5 60.8 1230.9 61.7 1231 62.7 1230.8 63.7 1230.6 64.7 1230.1 65.6 1229.4 66.3L1187.6 108.1 1162.5 104.4ZM1130.5 166.7 1138.5 158.6 1240 173.9 1231.9 181.9 1130.5 166.7ZM1188.8 226.2 1232.7 232.9C1233.6 233 1234.5 233.4 1235.2 234 1235.9 234.6 1236.4 235.4 1236.7 236.3 1237 237.2 1237 238.1 1236.8 239 1236.6 239.9 1236.1 240.7 1235.5 241.4L1199.6 277H1150.1C1149.1 277 1148.1 276.7 1147.3 276.1 1146.4 275.6 1145.8 274.8 1145.4 273.9 1145 272.9 1144.9 271.9 1145.1 270.9 1145.3 270 1145.8 269.1 1146.5 268.4L1188.8 226.2ZM1209.7 268.4 1280.9 197.4C1281.6 196.8 1282.1 195.9 1282.3 195 1282.5 194.1 1282.4 193.2 1282.2 192.3 1281.9 191.4 1281.3 190.6 1280.6 190 1279.9 189.4 1279.1 189 1278.1 188.9L1233.1 182.1 1241.2 174 1287.2 181C1290.7 181.5 1293.9 183.3 1296.2 186 1298.6 188.7 1299.9 192.1 1299.9 195.7V268.4L1291.2 276.9H1213.3C1212.3 276.9 1211.3 276.6 1210.5 276.1 1209.7 275.5 1209 274.7 1208.6 273.8 1208.3 272.9 1208.2 271.9 1208.4 270.9 1208.5 269.9 1209 269.1 1209.7 268.3L1209.7 268.4Z"/></g><defs><clipPath id="a"><path fill="#fff" d="M0 0H1358V334.9H0z"/></clipPath></defs></svg>