<svg xmlns="http://www.w3.org/2000/svg" fill="none" viewBox="0 0 1387 352">
<title>Lenis</title>
<path fill="#FF98A2" d="M76.88 182.3C69.5689 169.558 65.0778 157.964 63.4067 147.52C61.9444 136.867 62.9889 126.736 66.54 117.127C70.0911 107.309 76.0444 97.4911 84.4 87.6733C92.7556 77.6467 103.304 66.7844 116.047 55.0867C111.66 61.7711 108.631 68.3511 106.96 74.8267C105.498 81.3022 105.393 88.3 106.647 95.82C107.9 103.34 110.511 111.696 114.48 120.887C118.658 130.078 124.089 140.627 130.773 152.533C138.711 166.738 142.889 179.167 143.307 189.82C143.933 200.264 141.636 209.978 136.413 218.96C131.191 227.942 123.462 236.507 113.227 244.653C102.991 252.8 90.98 261.469 77.1933 270.66C82.6244 266.482 87.0111 261.991 90.3533 257.187C93.6956 252.173 95.5756 246.324 95.9933 239.64C96.4111 232.747 95.0533 224.704 91.92 215.513C88.9956 206.322 83.9822 195.251 76.88 182.3ZM200.96 3.38666C209.524 3.38666 217.358 4.74444 224.46 7.45999C231.562 9.96666 237.62 13.6222 242.633 18.4266C247.647 23.0222 251.511 28.6622 254.227 35.3467C256.942 41.8222 258.3 49.0289 258.3 56.9667C258.3 73.8867 251.302 90.8067 237.307 107.727C223.311 124.438 202.004 141.984 173.387 160.367C181.742 154.518 188.531 149.191 193.753 144.387C199.184 139.582 203.362 134.882 206.287 130.287C209.211 125.482 211.196 120.678 212.24 115.873C213.493 110.86 214.12 105.324 214.12 99.2667C214.12 90.9111 212.658 83.2867 209.733 76.3933C207.018 69.2911 203.049 63.3378 197.827 58.5333C192.604 53.7289 186.338 49.9689 179.027 47.2533C171.716 44.5378 163.569 43.18 154.587 43.18C147.902 43.18 141.427 43.7022 135.16 44.7467C129.102 45.7911 123.358 48.7156 117.927 53.52C123.358 47.88 129.102 42.1356 135.16 36.2867C141.218 30.2289 147.693 24.7978 154.587 19.9933C161.48 14.98 168.687 11.0111 176.207 8.08666C183.936 4.95333 192.187 3.38666 200.96 3.38666ZM180.593 351.5C168.478 351.5 157.198 349.411 146.753 345.233C136.518 341.056 126.387 336.46 116.36 331.447C106.542 326.433 96.5156 321.838 86.28 317.66C76.0444 313.482 64.9733 311.393 53.0667 311.393C48.4711 311.393 44.2933 311.707 40.5333 312.333C36.9822 312.96 33.3267 314.318 29.5667 316.407C25.8067 318.496 21.7333 321.629 17.3467 325.807C12.7511 329.776 7.21555 335.102 0.739998 341.787C14.5267 325.702 26.4333 312.856 36.46 303.247C46.4867 293.429 55.0511 286.013 62.1533 281C69.4644 275.778 75.6267 272.331 80.64 270.66C85.8622 268.989 90.6667 268.153 95.0533 268.153C107.169 268.153 119.076 270.138 130.773 274.107C142.471 278.076 153.856 282.462 164.927 287.267C176.207 292.071 187.173 296.458 197.827 300.427C208.48 304.396 218.82 306.38 228.847 306.38C234.904 306.38 240.127 305.544 244.513 303.873C248.9 301.993 252.66 299.591 255.793 296.667C248.9 307.32 242.32 316.198 236.053 323.3C229.787 330.193 223.52 335.729 217.253 339.907C211.196 344.084 205.138 347.009 199.08 348.68C193.022 350.56 186.86 351.5 180.593 351.5ZM257.673 295.1C259.136 292.384 260.18 289.356 260.807 286.013C261.642 282.462 262.06 278.911 262.06 275.36C262.06 265.96 259.762 256.769 255.167 247.787C250.571 238.596 244.304 229.718 236.367 221.153L289.32 173.527C292.244 177.704 294.856 181.673 297.153 185.433C299.66 188.984 301.749 192.64 303.42 196.4C305.3 199.951 306.658 203.711 307.493 207.68C308.538 211.649 309.06 215.931 309.06 220.527C309.06 232.642 304.464 244.653 295.273 256.56C286.082 268.467 273.549 281.313 257.673 295.1ZM473.198 216.767L420.244 265.02L419.618 120.887C421.289 119.007 423.482 116.813 426.198 114.307C428.913 111.591 433.091 107.727 438.731 102.713L471.631 72.32L473.198 216.767ZM415.231 47.88C422.542 40.9867 430.375 33.9889 438.731 26.8867C447.087 19.7844 454.607 13.3089 461.291 7.45999C472.153 11.0111 483.642 14.5622 495.758 18.1133C507.873 21.6644 519.571 24.9022 530.851 27.8267C542.131 30.5422 552.575 32.7355 562.184 34.4067C571.793 36.0778 579.418 36.9133 585.058 36.9133C592.369 36.9133 598.74 35.5555 604.171 32.84C609.811 29.9155 616.287 25.1111 623.598 18.4266C611.273 30.96 600.515 41.1955 591.324 49.1333C582.133 56.8622 573.987 63.0244 566.884 67.62C559.782 72.0067 553.307 75.0356 547.458 76.7067C541.609 78.3778 535.76 79.2133 529.911 79.2133C523.853 79.2133 516.542 78.4822 507.978 77.02C499.413 75.3489 490.013 73.1556 479.778 70.44C469.751 67.7244 459.202 64.4867 448.131 60.7267C437.06 56.7578 426.093 52.4755 415.231 47.88ZM606.051 217.393C603.336 230.553 598.322 244.34 591.011 258.753C583.7 273.167 574.195 286.431 562.498 298.547C551.009 310.662 537.431 320.584 521.764 328.313C506.307 336.251 488.864 340.22 469.438 340.22C447.504 340.22 428.182 336.773 411.471 329.88C394.969 322.987 381.182 313.691 370.111 301.993C359.04 290.296 350.58 276.718 344.731 261.26C339.091 245.802 336.271 229.404 336.271 212.067C336.271 197.027 337.42 183.344 339.718 171.02C342.015 158.696 345.984 146.58 351.624 134.673C357.264 122.558 364.889 110.024 374.498 97.0733C384.315 83.9133 396.64 68.8733 411.471 51.9533C403.533 62.1889 397.58 72.2156 393.611 82.0333C389.642 91.6422 386.822 101.042 385.151 110.233C383.48 119.424 382.54 128.407 382.331 137.18C382.331 145.953 382.331 154.413 382.331 162.56C382.331 206.427 393.089 239.431 414.604 261.573C436.12 283.507 467.558 294.473 508.918 294.473C522.496 294.473 534.715 292.489 545.578 288.52C556.44 284.551 565.944 279.12 574.091 272.227C582.238 265.333 588.922 257.187 594.144 247.787C599.575 238.387 603.544 228.256 606.051 217.393ZM518.631 140.94C527.613 144.909 535.551 148.147 542.444 150.653C549.338 152.951 555.396 154.727 560.618 155.98C566.049 157.233 570.644 158.069 574.404 158.487C578.373 158.904 581.924 159.113 585.058 159.113C588.609 159.113 592.16 157.964 595.711 155.667C599.262 153.369 604.275 149.087 610.751 142.82C599.262 154.518 589.444 164.231 581.298 171.96C573.151 179.48 566.153 185.538 560.304 190.133C554.455 194.52 549.442 197.653 545.264 199.533C541.087 201.204 537.222 202.04 533.671 202.04C529.911 202.04 525.942 201.831 521.764 201.413C517.795 200.787 513.409 199.847 508.604 198.593C504.009 197.131 498.891 195.251 493.251 192.953C487.611 190.656 481.24 187.731 474.138 184.18C481.449 176.869 488.864 169.558 496.384 162.247C503.904 154.727 511.32 147.624 518.631 140.94ZM842.711 83.2867C842.711 86.0022 842.606 90.5978 842.397 97.0733C842.397 103.549 842.293 111.069 842.084 119.633C841.875 128.198 841.666 137.598 841.457 147.833C841.457 157.86 841.353 167.991 841.144 178.227C840.517 202.04 839.995 228.36 839.577 257.187C839.577 271.6 840.517 280.269 842.397 283.193C844.069 285.909 846.366 288.52 849.291 291.027C852.215 293.324 856.289 294.473 861.511 294.473C863.809 294.473 865.897 294.16 867.777 293.533C869.657 292.698 871.746 291.549 874.044 290.087C872.164 291.758 869.135 294.578 864.957 298.547C860.989 302.307 856.706 306.38 852.111 310.767C847.515 315.153 842.92 319.436 838.324 323.613C833.937 327.582 830.386 330.611 827.671 332.7C826.417 333.744 825.06 334.58 823.597 335.207C822.135 335.833 820.255 336.147 817.957 336.147C815.242 336.147 811.691 335.102 807.304 333.013C803.126 331.133 798.322 327.269 792.891 321.42C789.131 317.242 786.415 313.169 784.744 309.2C783.282 305.022 782.551 299.904 782.551 293.847L785.684 109.92C785.684 91.5378 781.297 77.4378 772.524 67.62C763.751 57.5933 750.904 52.58 733.984 52.58C729.597 52.58 725.42 53.2067 721.451 54.46C717.482 55.5044 713.409 57.28 709.231 59.7867C705.053 62.2933 700.562 65.4267 695.757 69.1867C691.162 72.9467 685.94 77.3333 680.091 82.3467C682.597 90.4933 685.209 98.8489 687.924 107.413C690.849 115.978 693.46 124.542 695.757 133.107C698.264 141.462 700.249 149.713 701.711 157.86C703.173 166.007 703.904 173.84 703.904 181.36C703.904 210.396 681.971 240.267 638.104 270.973C643.326 267.004 647.817 261.991 651.577 255.933C655.337 249.667 657.217 242.773 657.217 235.253C657.217 221.049 655.233 206.844 651.264 192.64C647.504 178.436 643.326 164.544 638.731 150.967C634.135 137.389 629.853 124.333 625.884 111.8C622.124 99.0578 620.244 87.1511 620.244 76.08C620.244 68.7689 621.393 62.0844 623.691 56.0267C625.989 49.9689 629.54 44.12 634.344 38.48C639.149 32.6311 645.102 26.6778 652.204 20.62C659.515 14.5622 668.08 7.87777 677.897 0.566665C674.346 3.90888 671.84 7.66888 670.377 11.8467C669.124 16.0244 668.497 20.8289 668.497 26.26C668.497 34.1978 669.646 42.9711 671.944 52.58C674.242 61.98 676.957 71.9022 680.091 82.3467C692.624 70.44 703.591 59.9956 712.991 51.0133C722.6 42.0311 731.269 34.5111 738.997 28.4533C746.935 22.1867 754.246 17.5911 760.931 14.6667C767.824 11.5333 774.822 9.96666 781.924 9.96666C790.697 9.96666 798.74 11.6378 806.051 14.98C813.571 18.3222 820.046 23.1267 825.477 29.3933C830.909 35.66 835.086 43.3889 838.011 52.58C841.144 61.5622 842.711 71.7978 842.711 83.2867ZM680.091 333.64C674.242 333.64 668.289 332.7 662.231 330.82C656.382 328.94 650.533 326.956 644.684 324.867C638.835 322.569 632.986 320.48 627.137 318.6C621.497 316.72 615.962 315.78 610.531 315.78C606.771 315.78 603.533 316.198 600.817 317.033C598.102 317.66 595.282 318.809 592.357 320.48C589.642 322.151 586.717 324.344 583.584 327.06C580.242 329.776 576.273 333.222 571.677 337.4C583.166 324.867 592.984 314.318 601.131 305.753C609.277 297.189 616.484 290.296 622.751 285.073C629.017 279.851 634.657 276.196 639.671 274.107C644.893 271.809 650.22 270.66 655.651 270.66C661.709 270.66 667.453 271.6 672.884 273.48C678.315 275.151 683.746 277.031 689.177 279.12C694.609 281 700.249 282.776 706.097 284.447C711.946 286.118 718.317 286.953 725.211 286.953C729.597 286.953 733.253 286.744 736.177 286.327C739.102 285.7 741.713 284.864 744.011 283.82C746.517 282.567 748.92 281 751.217 279.12C753.515 277.24 756.231 275.047 759.364 272.54C749.964 283.193 741.817 292.384 734.924 300.113C728.031 307.842 721.66 314.213 715.811 319.227C710.171 324.24 704.531 327.896 698.891 330.193C693.251 332.491 686.984 333.64 680.091 333.64ZM1024.66 75.4533C1014.84 75.4533 1005.23 74.5133 995.833 72.6333C986.433 70.7533 976.824 68.6644 967.006 66.3667C957.397 63.86 947.475 61.6667 937.239 59.7867C927.213 57.9067 916.559 56.9667 905.279 56.9667C901.519 56.9667 898.073 57.3844 894.939 58.22C891.806 58.8467 888.673 59.9955 885.539 61.6667C882.406 63.3378 879.064 65.5311 875.513 68.2467C871.962 70.9622 867.888 74.4089 863.293 78.5867C876.244 65.0089 887.315 53.9378 896.506 45.3733C905.697 36.6 913.531 29.8111 920.006 25.0067C926.691 19.9933 932.331 16.5466 936.926 14.6667C941.731 12.7867 946.326 11.8467 950.713 11.8467C960.531 11.8467 970.244 12.8911 979.853 14.98C989.671 16.86 999.384 18.9489 1008.99 21.2467C1018.81 23.5444 1028.42 25.7378 1037.82 27.8267C1047.43 29.7067 1056.93 30.6467 1066.33 30.6467C1072.18 30.6467 1076.88 30.2289 1080.43 29.3933C1084.19 28.5578 1087.54 27.3044 1090.46 25.6333C1093.59 23.7533 1096.62 21.4556 1099.55 18.74C1102.68 15.8155 1106.54 12.2644 1111.14 8.08666C1097.56 21.6644 1086.7 32.84 1078.55 41.6133C1070.62 50.1778 1063.72 56.9667 1057.87 61.98C1052.23 66.9933 1047.01 70.5444 1042.21 72.6333C1037.4 74.5133 1031.55 75.4533 1024.66 75.4533ZM1008.37 342.1C998.548 342.1 988.731 340.951 978.913 338.653C969.304 336.356 959.382 333.849 949.146 331.133C939.119 328.627 928.779 326.224 918.126 323.927C907.682 321.629 896.819 320.48 885.539 320.48C881.779 320.48 878.333 320.898 875.199 321.733C872.066 322.36 868.933 323.509 865.799 325.18C862.666 326.851 859.324 329.044 855.773 331.76C852.222 334.476 848.148 337.922 843.553 342.1C856.504 328.522 867.575 317.451 876.766 308.887C885.957 300.113 893.791 293.324 900.266 288.52C906.951 283.507 912.591 280.06 917.186 278.18C921.991 276.3 926.586 275.36 930.973 275.36C940.791 275.36 950.713 276.404 960.739 278.493C970.975 280.373 981.106 282.462 991.133 284.76C1001.37 287.058 1011.4 289.251 1021.21 291.34C1031.03 293.22 1040.64 294.16 1050.04 294.16C1055.89 294.16 1060.59 293.742 1064.14 292.907C1067.9 292.071 1071.24 290.818 1074.17 289.147C1077.3 287.267 1080.33 284.969 1083.25 282.253C1086.39 279.329 1090.25 275.778 1094.85 271.6C1083.57 284.342 1073.96 295.204 1066.02 304.187C1058.29 313.169 1051.29 320.48 1045.03 326.12C1038.76 331.76 1032.81 335.833 1027.17 338.34C1021.53 340.847 1015.26 342.1 1008.37 342.1ZM968.886 243.713C968.886 233.478 966.902 224.078 962.933 215.513C959.173 206.74 954.995 198.28 950.399 190.133C945.804 181.987 941.522 173.736 937.553 165.38C933.793 157.024 931.913 148.042 931.913 138.433C931.913 125.9 936.299 114.411 945.073 103.967C954.055 93.3133 966.797 82.4511 983.299 71.38C980.793 73.4689 978.599 76.2889 976.719 79.84C974.839 83.1822 973.899 87.2555 973.899 92.06C973.899 100.207 975.988 108.249 980.166 116.187C984.553 123.916 989.253 131.853 994.266 140C999.279 147.938 1003.88 156.189 1008.05 164.753C1012.44 173.318 1014.63 182.404 1014.63 192.013C1014.63 208.516 1009.2 223.556 998.339 237.133C987.686 250.711 972.959 263.767 954.159 276.3C959.382 272.331 963.142 267.736 965.439 262.513C967.737 257.291 968.886 251.024 968.886 243.713ZM1314.76 281.627C1294.49 321.942 1266.71 342.1 1231.41 342.1C1224.1 342.1 1216.27 341.056 1207.91 338.967C1199.55 336.878 1191.09 334.267 1182.53 331.133C1174.17 328 1165.82 324.658 1157.46 321.107C1149.32 317.556 1141.69 314.213 1134.59 311.08C1127.49 307.947 1121.01 305.336 1115.16 303.247C1109.52 301.158 1105.03 300.113 1101.69 300.113C1098.14 300.113 1094.8 300.74 1091.66 301.993C1088.74 303.038 1085.29 305.022 1081.32 307.947C1077.56 310.662 1073.07 314.422 1067.85 319.227C1062.42 323.822 1055.84 329.671 1048.11 336.773L1047.48 337.087L1098.24 287.58L1163.73 227.42C1155.79 225.122 1148.38 222.616 1141.48 219.9C1134.59 216.976 1128.53 213.633 1123.31 209.873C1118.09 206.113 1113.91 201.831 1110.78 197.027C1107.85 192.013 1106.39 186.269 1106.39 179.793C1106.39 173.944 1107.43 168.722 1109.52 164.127C1111.82 159.322 1114.95 154.831 1118.92 150.653C1123.1 146.267 1128.01 141.984 1133.65 137.807C1139.5 133.629 1145.87 129.138 1152.76 124.333C1148.79 129.138 1146.18 133.211 1144.93 136.553C1143.89 139.896 1143.36 143.864 1143.36 148.46C1143.36 153.891 1145.03 158.591 1148.38 162.56C1151.93 166.32 1156.63 169.767 1162.48 172.9C1168.53 175.824 1175.32 178.436 1182.84 180.733C1190.57 183.031 1198.72 185.224 1207.28 187.313L1243 154.727C1230.68 151.384 1218.56 148.147 1206.66 145.013C1194.96 141.671 1184.51 137.911 1175.32 133.733C1166.13 129.347 1158.72 124.229 1153.08 118.38C1147.44 112.322 1144.62 105.011 1144.62 96.4467C1144.62 89.7622 1147.12 83.2867 1152.14 77.02C1157.36 70.7533 1164.46 63.4422 1173.44 55.0867C1181.8 47.3578 1188.9 40.7778 1194.75 35.3467C1200.6 29.9155 1206.55 24.7978 1212.61 19.9933C1215.95 17.4867 1218.67 15.5022 1220.76 14.04C1223.05 12.5778 1225.25 11.4289 1227.34 10.5933C1229.01 9.75777 1230.99 9.1311 1233.29 8.71332C1235.8 8.29555 1239.03 8.08666 1243 8.08666C1249.69 8.08666 1258.04 9.54888 1268.07 12.4733C1278.31 15.3978 1288.85 18.6355 1299.72 22.1867C1310.79 25.5289 1321.34 28.6622 1331.36 31.5867C1341.6 34.5111 1350.06 35.9733 1356.74 35.9733C1363.43 35.9733 1368.75 35.1378 1372.72 33.4667C1376.9 31.7955 1381.5 28.6622 1386.51 24.0667L1288.75 113.993C1300.66 117.544 1312.25 121.513 1323.53 125.9C1334.81 130.078 1344.84 135.196 1353.61 141.253C1362.38 147.311 1369.38 154.518 1374.6 162.873C1379.83 171.02 1382.44 180.733 1382.44 192.013C1382.44 200.787 1380.45 209.142 1376.48 217.08C1372.72 224.809 1367.81 232.224 1361.76 239.327C1355.7 246.22 1348.91 252.8 1341.39 259.067C1333.87 265.124 1326.56 270.66 1319.46 275.673C1322.8 272.331 1325.72 268.989 1328.23 265.647C1330.95 262.096 1333.24 258.44 1335.12 254.68C1337 250.711 1338.36 246.429 1339.2 241.833C1340.24 237.238 1340.76 232.016 1340.76 226.167C1340.76 215.513 1337.94 206.427 1332.3 198.907C1326.87 191.178 1319.67 184.702 1310.68 179.48C1301.7 174.049 1291.36 169.453 1279.66 165.693C1268.17 161.724 1256.37 158.173 1244.26 155.04L1208.85 187.627C1219.71 190.342 1230.57 193.058 1241.44 195.773C1252.3 198.28 1262.12 201.413 1270.89 205.173C1279.66 208.724 1286.77 213.007 1292.2 218.02C1297.63 223.033 1300.34 229.196 1300.34 236.507C1300.34 243.191 1298.67 249.562 1295.33 255.62C1291.99 261.469 1287.91 266.9 1283.11 271.913C1278.51 276.927 1273.61 281.418 1268.38 285.387C1263.37 289.147 1258.98 292.28 1255.22 294.787C1259.4 291.653 1262.43 288.52 1264.31 285.387C1266.4 282.044 1267.44 277.553 1267.44 271.913C1267.44 265.438 1264.21 260.111 1257.73 255.933C1251.46 251.756 1243.42 248.1 1233.6 244.967C1223.79 241.833 1212.82 239.013 1200.7 236.507C1188.59 233.791 1176.79 230.867 1165.3 227.733L1102.94 285.387C1109.21 279.538 1114.64 275.047 1119.24 271.913C1123.83 268.78 1127.8 266.482 1131.14 265.02C1134.69 263.558 1137.62 262.722 1139.92 262.513C1142.42 262.304 1144.51 262.2 1146.18 262.2C1150.36 262.2 1155.58 263.244 1161.85 265.333C1168.12 267.213 1174.91 269.616 1182.22 272.54C1189.53 275.464 1197.26 278.702 1205.4 282.253C1213.76 285.596 1222.01 288.729 1230.16 291.653C1238.3 294.578 1246.14 297.084 1253.66 299.173C1261.39 301.053 1268.49 301.993 1274.96 301.993C1284.57 301.993 1292.3 300.531 1298.15 297.607C1304 294.473 1309.53 289.147 1314.76 281.627ZM1181.59 61.04C1181.59 68.3511 1184.62 74.5133 1190.68 79.5267C1196.94 84.54 1205.09 89.0311 1215.12 93C1225.14 96.76 1236.42 100.207 1248.96 103.34C1261.7 106.473 1274.55 109.92 1287.5 113.68L1373.98 34.0933C1365.41 41.8222 1357.79 48.0889 1351.1 52.8933C1344.63 57.6978 1338.67 61.4578 1333.24 64.1733C1328.02 66.8889 1323.22 68.7689 1318.83 69.8133C1314.44 70.8578 1310.06 71.38 1305.67 71.38C1299.4 71.38 1291.57 69.9178 1282.17 66.9933C1272.77 64.0689 1263.06 60.8311 1253.03 57.28C1243 53.7289 1233.19 50.4911 1223.58 47.5667C1213.97 44.6422 1205.93 43.18 1199.45 43.18C1193.18 43.18 1188.07 44.0156 1184.1 45.6867C1183.05 47.9844 1182.32 50.1778 1181.9 52.2667C1181.69 54.3555 1181.59 57.28 1181.59 61.04Z"/></svg>