<svg xmlns="http://www.w3.org/2000/svg" fill="none" viewBox="0 0 1360 336"><g fill="#FF98A2" clip-path="url(#a)"><path d="M873.785 269.237L873.07 268.522L870.381 271.221C859.786 281.815 841.477 275.733 839.604 260.868C839.226 257.811 839.041 254.733 839.051 251.653V0.352783H838.094V25.3891C838.093 26.0395 837.883 26.6722 837.494 27.1933C837.105 27.7145 836.558 28.0962 835.934 28.2817C835.311 28.4672 834.644 28.4466 834.034 28.2231C833.423 27.9995 832.901 27.5849 832.545 27.0408C828.893 21.4061 823.89 16.775 817.99 13.5699C812.09 10.3648 805.481 8.6877 798.767 8.69143H722.621L664.068 67.244C663.363 67.9465 662.466 68.4245 661.49 68.6176C660.513 68.8106 659.502 68.7101 658.583 68.3286C657.663 67.9472 656.878 67.3019 656.325 66.4743C655.773 65.6467 655.478 64.674 655.478 63.6789V0.352783H654.471V29.2664C654.472 29.9547 654.238 30.6227 653.807 31.1599C653.377 31.6971 652.776 32.0711 652.104 32.2203C651.432 32.3695 650.729 32.2848 650.112 31.9802C649.495 31.6756 649 31.1695 648.71 30.5454C640.653 13.2536 628.316 8.71159 628.316 8.71159L570.549 65.8038L571.264 66.5188L573.812 64.0011C584.407 53.5474 602.484 59.6001 604.498 74.354C604.93 77.6158 605.138 80.9032 605.123 84.1933V271.372L541.847 334.648L542.562 335.353L545.744 332.18C547.433 330.539 549.43 329.249 551.62 328.384C553.81 327.52 556.15 327.099 558.505 327.145H682.84L731.463 277.868L739.63 269.7L738.925 268.985L735.773 272.137C734.09 273.822 732.092 275.159 729.892 276.072C727.692 276.984 725.334 277.454 722.953 277.455H673.222C672.226 277.454 671.252 277.159 670.424 276.605C669.596 276.051 668.951 275.264 668.57 274.343C668.189 273.422 668.09 272.409 668.286 271.432C668.481 270.455 668.962 269.558 669.667 268.854L780.156 158.366C780.86 157.664 781.756 157.186 782.731 156.993C783.707 156.799 784.717 156.899 785.636 157.279C786.555 157.659 787.34 158.303 787.894 159.129C788.447 159.955 788.744 160.927 788.746 161.921V270.556C788.746 317.144 815.938 327.094 815.938 327.094L817.529 325.503L873.785 269.237ZM674.793 57.9081H727.696C728.694 57.9063 729.669 58.2007 730.498 58.7539C731.328 59.3071 731.975 60.0942 732.357 61.0155C732.738 61.9367 732.838 62.9505 732.643 63.9284C732.448 64.9064 731.968 65.8045 731.261 66.5087L664.068 133.742C663.364 134.448 662.466 134.929 661.488 135.124C660.51 135.32 659.496 135.22 658.575 134.838C657.653 134.456 656.866 133.809 656.313 132.98C655.76 132.15 655.466 131.174 655.467 130.177C655.467 111.234 655.467 77.2645 655.467 77.2645L674.793 57.9081ZM655.427 143.763L666.213 132.997V210.282L655.407 221.088L655.427 143.763ZM609.02 268.894L657.643 220.272C658.348 219.569 659.245 219.091 660.221 218.898C661.197 218.705 662.209 218.806 663.128 219.187C664.047 219.569 664.833 220.214 665.385 221.042C665.938 221.869 666.233 222.842 666.233 223.837V268.774C666.23 270.108 665.698 271.387 664.753 272.329L659.597 277.495H612.565C611.57 277.493 610.597 277.196 609.77 276.641C608.944 276.086 608.3 275.299 607.921 274.378C607.542 273.458 607.444 272.446 607.639 271.47C607.835 270.494 608.315 269.597 609.02 268.894V268.894ZM716.578 208.368V82.6424L741.312 57.9081H770.638C775.446 57.9081 780.057 59.818 783.457 63.2176C786.856 66.6172 788.766 71.2281 788.766 76.0359V148.426L725.229 211.963C724.526 212.689 723.62 213.186 722.631 213.391C721.641 213.595 720.613 213.497 719.68 213.109C718.747 212.721 717.952 212.062 717.399 211.216C716.845 210.371 716.56 209.378 716.578 208.368V208.368Z"/><path d="M1113.4 269.2 1112.7 268.5 1109.1 272.1C1105.7 275.5 1101.1 277.5 1096.3 277.5H1001.1C1000.1 277.5 999.1 277.2 998.3 276.6 997.5 276.1 996.8 275.3 996.4 274.3 996.1 273.4 996 272.4 996.1 271.4 996.3 270.5 996.8 269.6 997.5 268.9L1058.4 208 1057.7 207.2 1050.6 214.4C1050.1 214.8 1049.6 215.1 1049 215.2 1048.4 215.4 1047.8 215.3 1047.3 215.1 1046.7 214.8 1046.2 214.4 1045.9 214 1045.6 213.5 1045.4 212.9 1045.4 212.3V64L1051.8 57.6H1087.5V57.6L1144.1 1 1143.4.3 1140.2 3.4C1138.6 5.1 1136.6 6.4 1134.4 7.3 1132.2 8.2 1129.8 8.7 1127.4 8.7H927.4L870.3 65.8 871 66.5 874.5 63.1C877.9 59.8 882.4 57.9 887.2 57.9L977.1 57.8C978.1 57.8 979.1 58 979.9 58.6 980.7 59.2 981.4 59.9 981.8 60.9 982.2 61.8 982.3 62.8 982.1 63.8 981.9 64.7 981.4 65.6 980.7 66.3L920.6 126.4 921.3 127.1 928.4 120C928.9 119.6 929.4 119.3 930 119.2 930.6 119.1 931.2 119.1 931.7 119.4 932.3 119.6 932.7 120 933.1 120.5 933.4 121 933.6 121.6 933.6 122.2V270.1L926.2 277.5H895.4L837.6 334.7 838.3 335.4 841.3 332.4C844.7 329 849.3 327.2 854 327.2H1056L1113.4 269.2ZM990.7 57.7 1038.2 57.7C1039.2 57.7 1040.1 58 1041 58.5 1041.8 59.1 1042.4 59.9 1042.8 60.8 1043.2 61.7 1043.3 62.7 1043.1 63.7 1042.9 64.7 1042.4 65.6 1041.7 66.3L992.5 115.5C991.8 116.2 990.9 116.6 990 116.8 989 117 988 116.9 987 116.5 986.1 116.2 985.3 115.5 984.8 114.7 984.2 113.9 983.9 112.9 983.9 111.9V64.6L990.7 57.7ZM983.9 125.5 995 114.4V208.7L983.9 219.7V125.5ZM986.4 218.7C987.2 218 988 217.5 989 217.3 990 217.1 991 217.2 991.9 217.6 992.9 218 993.6 218.6 994.2 219.5 994.8 220.3 995 221.3 995 222.3V269.9L987.5 277.5H939.8C938.8 277.5 937.8 277.2 937 276.6 936.2 276.1 935.5 275.3 935.2 274.4 934.8 273.5 934.7 272.4 934.9 271.5 935.1 270.5 935.5 269.6 936.2 268.9L986.4 218.7ZM563.6 268.8 562.8 268.1 558.9 272C557.2 273.7 555.2 275.1 553 276 550.8 276.9 548.4 277.3 546.1 277.3H439.8C438.8 277.3 437.9 277 437 276.5 436.2 275.9 435.6 275.2 435.2 274.2 434.8 273.3 434.7 272.3 434.9 271.3 435.1 270.4 435.6 269.5 436.3 268.8L571.6 133.4 570.9 132.7 566.1 137.4C564.5 139.1 562.4 140.5 560.2 141.4 558 142.3 555.6 142.7 553.2 142.7 550.8 142.7 548.5 142.2 546.3 141.3 544.1 140.4 542.1 139 540.4 137.3L507.5 103.8C506.6 102.9 506.1 101.6 506.1 100.3 506.1 98.9 506.6 97.7 507.5 96.7L603.2 1.1 602.5.4 599.3 3.5C597.6 5.2 595.6 6.5 593.4 7.4 591.2 8.4 588.9 8.8 586.5 8.8H448L398.8 58.1 390.4 66.4C389.7 67.2 388.8 67.6 387.8 67.8 386.9 68 385.9 67.9 384.9 67.5 384 67.2 383.2 66.5 382.7 65.7 382.1 64.9 381.8 63.9 381.8 62.9V.5H380.8V29.3C380.8 30 380.6 30.6 380.1 31.1 379.7 31.7 379.1 32.1 378.4 32.2 377.8 32.3 377.1 32.3 376.5 32 375.9 31.7 375.4 31.2 375.1 30.5 367 13.3 354.7 8.7 354.7 8.7L296.9 65.8 297.6 66.5 300.2 64C310.8 53.5 328.8 59.6 330.8 74.4 331.3 77.6 331.5 80.9 331.5 84.2V271.3L268.3 334.5 269 335.2 271.9 332.2C275.3 328.8 279.9 326.9 284.7 326.9H505.2L563.6 268.8ZM499.6 204 426.2 277.3H397.2C396.2 277.3 395.2 277 394.4 276.5 393.6 275.9 392.9 275.2 392.5 274.2 392.2 273.3 392.1 272.3 392.3 271.3 392.5 270.4 392.9 269.5 393.6 268.8L437.3 225.1C439 223.4 440.3 221.4 441.3 219.2 442.2 217 442.6 214.6 442.6 212.2V161.6L453.7 150.6 499.6 196.9C500.6 197.8 501.1 199.1 501.1 200.4 501.1 201.8 500.6 203 499.6 204V204ZM442.6 148.1V81.3L466.1 57.8 533.1 57.6C534.1 57.6 535.1 57.9 535.9 58.5 536.7 59 537.4 59.8 537.8 60.7 538.1 61.7 538.2 62.7 538 63.6 537.8 64.6 537.4 65.5 536.7 66.2L451.2 151.7C450.5 152.4 449.6 152.9 448.6 153.1 447.7 153.3 446.6 153.2 445.7 152.8 444.8 152.4 444 151.7 443.5 150.9 442.9 150.1 442.6 149.1 442.6 148.1V148.1ZM400.3 58 452.5 57.8C453.5 57.8 454.4 58.1 455.3 58.7 456.1 59.2 456.8 60 457.1 60.9 457.5 61.9 457.6 62.9 457.4 63.8 457.2 64.8 456.8 65.7 456.1 66.4L390.5 131.5C389.8 132.2 388.9 132.7 387.9 132.9 386.9 133.1 385.9 133 385 132.6 384.1 132.2 383.3 131.6 382.7 130.8 382.2 129.9 381.9 129 381.9 128V78.5C381.9 77.1 382.4 75.9 383.4 74.9L400.3 58ZM381.9 142 392.3 131.6V210.6L381.9 221 381.9 142ZM392.3 224.2V268.7L383.6 277.4H339C338.1 277.4 337.1 277.1 336.3 276.5 335.4 276 334.8 275.2 334.4 274.3 334 273.4 333.9 272.4 334.1 271.4 334.3 270.4 334.8 269.5 335.5 268.8L383.7 220.6C384.4 219.9 385.3 219.4 386.2 219.2 387.2 219 388.2 219.1 389.1 219.5 390.1 219.9 390.9 220.5 391.4 221.3 392 222.2 392.3 223.1 392.3 224.1L392.3 224.2Z"/><path d="M312.5 124.6 159.8 277.3H129.2C128.2 277.3 127.2 277 126.4 276.4 125.5 275.9 124.9 275.1 124.5 274.2 124.1 273.3 124 272.2 124.2 271.3 124.4 270.3 124.9 269.4 125.6 268.7L168.8 225.5C172.2 222.1 174.1 217.5 174.1 212.7V84.8C174.1 84.1 174.2 83.5 174.4 82.9 174.7 82.3 175.1 81.7 175.5 81.2L198.9 57.9C203.6 58 208.2 59.9 211.6 63.3 215 66.7 216.8 71.3 216.8 76V112.5C216.8 114 216.5 115.6 215.9 117.1 215.3 118.5 214.4 119.9 213.3 121L210 124.3 210.6 125.1 267.2 68.6V.4H266.2V25.4C266.2 26.1 266 26.7 265.6 27.2 265.2 27.7 264.6 28.1 264 28.3 263.4 28.5 262.7 28.5 262.1 28.2 261.5 28 261 27.6 260.6 27.1 257 21.4 252 16.8 246.1 13.6 240.2 10.4 233.6 8.7 226.9 8.7H179.5L138.1 50.3 122 66.4C121.3 67.1 120.4 67.6 119.4 67.8 118.5 68 117.5 67.9 116.5 67.5 115.6 67.1 114.8 66.4 114.3 65.6 113.7 64.8 113.4 63.8 113.4 62.8V.4H112.4V29.3C112.4 30 112.2 30.6 111.8 31.2 111.3 31.7 110.7 32.1 110.1 32.2 109.4 32.4 108.7 32.3 108.1 32 107.4 31.7 107 31.2 106.7 30.5 98.6 13.3 86.3 8.7 86.3 8.7L28.5 65.8 29.2 66.5 31.8 64C42.4 53.5 60.4 59.6 62.5 74.4 62.9 77.6 63.1 80.9 63.1 84.2V271.1L-.1 334.3.6 335 3.1 332.5C6.5 329.1 11.1 327.2 15.9 327.2H198.6L298.2 227C301.6 223.6 303.5 219 303.5 214.2V142.4C303.5 137.6 305.4 133 308.8 129.6L313.1 125.3 312.5 124.6ZM113.5 129.1V76.3L131.9 57.9H185.3C186.3 57.9 187.2 58.2 188.1 58.8 188.9 59.3 189.5 60.1 189.9 61 190.3 61.9 190.4 63 190.2 63.9 190 64.9 189.5 65.8 188.8 66.5L122.1 133.2C121.4 133.9 120.5 134.4 119.5 134.6 118.6 134.8 117.5 134.7 116.6 134.3 115.7 133.9 114.9 133.3 114.4 132.4 113.8 131.6 113.5 130.6 113.5 129.6L113.5 129.1ZM113.5 143.2 123.7 133V210.5L113.5 220.7 113.5 143.2ZM115.6 277.3H70.5C69.5 277.3 68.6 277 67.7 276.4 66.9 275.9 66.3 275.1 65.9 274.1 65.5 273.2 65.4 272.2 65.6 271.2 65.8 270.3 66.3 269.4 67 268.7L115.1 220.5C115.8 219.8 116.7 219.3 117.7 219.1 118.7 218.9 119.7 219 120.6 219.4 121.5 219.8 122.3 220.4 122.9 221.3 123.4 222.1 123.7 223.1 123.7 224.1V269L115.6 277.3ZM253.2 269.3C253.2 270.1 252.9 270.9 252.4 271.5L247.5 276.4C246.9 276.9 246.1 277.3 245.3 277.3H173.4C172.4 277.3 171.4 277 170.6 276.4 169.7 275.9 169.1 275.1 168.7 274.1 168.3 273.2 168.2 272.2 168.4 271.2 168.6 270.3 169.1 269.4 169.8 268.7L244.7 193.8C245.4 193.1 246.3 192.6 247.2 192.4 248.2 192.2 249.2 192.3 250.1 192.7 251.1 193.1 251.8 193.7 252.4 194.6 252.9 195.4 253.2 196.4 253.2 197.4V269.3ZM1324 128.4 1254.1 118C1253.2 117.8 1252.3 117.4 1251.6 116.8 1250.9 116.2 1250.4 115.5 1250.1 114.6 1249.8 113.7 1249.7 112.7 1250 111.8 1250.2 110.9 1250.6 110.1 1251.3 109.4L1360 .7 1359.3 0 1355.9 3.4C1354.2 5.1 1352.2 6.4 1350 7.3 1347.8 8.2 1345.4 8.7 1343 8.7H1209.2L1101.7 116.2V123.9C1101.7 132 1104.6 139.9 1109.9 146 1115.2 152.2 1122.5 156.2 1130.5 157.4V157.4C1131.3 157.5 1132.1 157.9 1132.7 158.4 1133.3 158.9 1133.7 159.5 1134 160.3 1134.2 161.1 1134.2 161.9 1134.1 162.6 1133.9 163.4 1133.5 164.1 1132.9 164.7L1079.8 217.8 1080.5 218.6 1083.6 215.4C1085 214.1 1086.6 213.1 1088.4 212.5 1090.2 211.9 1092.1 211.7 1094 212L1179.5 224.9C1180.4 225 1181.2 225.4 1182 226 1182.7 226.6 1183.2 227.4 1183.5 228.3 1183.8 229.2 1183.8 230.1 1183.6 231 1183.4 231.9 1182.9 232.8 1182.3 233.4L1080.6 334.7 1081.3 335.4 1084.3 332.5C1087.7 329.1 1092.3 327.2 1097.1 327.2H1244.5C1244.8 327.2 1245 327.1 1245.2 326.9L1359 214.2V169C1359 159.2 1355.4 149.7 1349 142.2 1342.6 134.8 1333.7 129.9 1324 128.4V128.4ZM1243 116.3 1200.4 110C1199.5 109.8 1198.6 109.4 1197.9 108.8 1197.2 108.2 1196.7 107.4 1196.4 106.6 1196.1 105.7 1196.1 104.7 1196.3 103.8 1196.5 102.9 1197 102.1 1197.6 101.4L1241.3 57.7 1289.5 57.6C1290.5 57.6 1291.5 57.9 1292.3 58.4 1293.2 59 1293.8 59.8 1294.2 60.7 1294.6 61.6 1294.7 62.6 1294.5 63.6 1294.3 64.6 1293.8 65.5 1293.1 66.2L1243 116.3ZM1164.2 104.6C1161.6 104.2 1159.1 102.8 1157.3 100.7 1155.5 98.7 1154.6 96 1154.6 93.3V64.4L1161.1 57.9 1227.7 57.8C1228.7 57.8 1229.7 58.1 1230.5 58.6 1231.3 59.2 1232 59.9 1232.3 60.9 1232.7 61.8 1232.8 62.8 1232.6 63.8 1232.4 64.8 1232 65.7 1231.3 66.4L1189.3 108.3 1164.2 104.6ZM1132.1 166.9 1140.2 158.9 1230.5 172.4C1231.6 172.6 1232.5 173 1233.4 173.7 1234.2 174.4 1234.8 175.3 1235.1 176.3 1235.4 177.3 1235.5 178.4 1235.2 179.5 1235 180.5 1234.5 181.4 1233.7 182.2V182.2L1132.1 166.9ZM1190.5 226.6 1234.5 233.2C1235.4 233.3 1236.3 233.7 1237 234.3 1237.7 234.9 1238.2 235.7 1238.5 236.6 1238.8 237.5 1238.9 238.5 1238.6 239.4 1238.4 240.3 1238 241.1 1237.3 241.8L1201.4 277.4H1151.8C1150.8 277.4 1149.8 277.1 1149 276.5 1148.1 276 1147.5 275.2 1147.1 274.3 1146.7 273.3 1146.6 272.3 1146.8 271.3 1147 270.4 1147.5 269.5 1148.2 268.8L1190.5 226.6ZM1211.5 268.8 1282.8 197.7C1283.5 197.1 1283.9 196.2 1284.2 195.3 1284.4 194.4 1284.3 193.5 1284 192.6 1283.8 191.7 1283.2 190.9 1282.5 190.3 1281.8 189.7 1280.9 189.3 1280 189.2L1234.9 182.3 1242.7 174.7C1242.8 174.5 1242.9 174.5 1243.1 174.4 1243.2 174.4 1243.4 174.3 1243.5 174.4L1289.1 181.2C1292.6 181.7 1295.9 183.5 1298.2 186.2 1300.5 189 1301.8 192.4 1301.8 196V268.8L1293.1 277.3H1215.1C1214.1 277.3 1213.1 277 1212.3 276.5 1211.4 275.9 1210.8 275.1 1210.4 274.2 1210 273.3 1209.9 272.3 1210.1 271.3 1210.3 270.3 1210.8 269.4 1211.5 268.7L1211.5 268.8Z"/></g><defs><clipPath id="a"><path fill="#fff" d="M0 0H1360V335.4H0z"/></clipPath></defs></svg>