<svg xmlns="http://www.w3.org/2000/svg" fill="none" viewBox="0 0 44 39"><title>Studio Freight Darkroom</title><path fill="#B0B0B0" d="M13.5965 0H3.2677C1.4638 0 0 1.46359 0 3.26723V19.5V35.7328C0 37.5377 1.4638 39 3.2677 39H13.5965C14.7377 39 15.4104 37.7195 14.7626 36.7803L3.71868 20.7543C3.19794 19.9995 3.19794 19.0018 3.71868 18.2457L14.7626 2.21967C15.4104 1.28049 14.7377 0 13.5965 0Z"/><path fill="#B0B0B0" d="M26.2358 1.53833L6.27453 18.3229C5.54325 18.937 5.54325 20.0618 6.27453 20.6771L26.2358 37.4617C27.4168 38.4557 28.9118 39 30.4553 39H40.7318C42.5369 39 43.9995 37.5364 43.9995 35.7328V19.5V3.26723C43.9995 1.46359 42.5369 0 40.7318 0H30.4553C28.9105 0 27.4168 0.544331 26.2358 1.53833Z"/><path fill="#0E0E0E" d="M11.1 20.6C11.1 20.8 11.1 20.9 11.1 20.9 11.1 21.5 11.2 21.9 11.6 22.1 12 22.3 12.4 22.4 14.3 22.4 15.5 22.4 16.3 22.3 16.7 22.2 17.4 22.1 17.7 21.6 17.7 20.7 17.7 19.6 17.3 19.1 16.3 19.1 16 19.1 15.3 19.1 15.2 19.1H13.7C13.1 19 13.1 19 13 19 12.8 19 12.7 18.8 12.7 18.6 12.7 18.3 12.8 18.2 13.2 18.1 13.5 18.1 14.2 18.1 14.7 18.1 15.8 18.1 15.9 18.2 15.9 18.6H17.5C17.5 17.8 17.4 17.5 17 17.3 16.6 17 16.2 17 14.3 17 13.2 17 12.5 17 12.1 17.1 11.3 17.3 11.1 17.7 11.1 18.7 11.1 19.4 11.2 19.8 11.6 20 12 20.2 12.4 20.3 13.4 20.3H14.8C15.7 20.3 15.7 20.3 15.8 20.3 16 20.4 16.1 20.5 16.1 20.8 16.1 21.2 15.9 21.2 14 21.2 13.5 21.2 13 21.2 12.9 21.2 12.7 21.1 12.7 21 12.7 20.6H11.1ZM18.4 22.3H20V20.5H23.9V19.3H20V18.2H24.1V17H18.4V22.3ZM24.8 22.3H29.7C30.2 22.3 30.5 22.3 30.8 22.3 31.4 22.2 31.8 21.7 31.9 21 32 20.7 32 20.2 32 19.7 32 19.4 32 19.1 32 18.8 31.9 18.1 31.8 17.8 31.5 17.5 31.1 17.1 30.6 17 29.5 17H24.8V22.3ZM26.5 21.1V18.3H29.2C30.2 18.3 30.4 18.6 30.4 19.7 30.4 20.6 30.3 20.9 29.9 21 29.7 21.1 29.6 21.1 29.2 21.1H26.5ZM32.7 22.3H34.3V21H36.8C37.3 21 37.4 21 37.5 21.1 37.7 21.2 37.7 21.4 37.7 21.7V22.3H39.4V21.5C39.4 21 39.3 20.8 39.2 20.6 39 20.4 38.8 20.4 38.2 20.3 38.2 20.3 38.1 20.3 38 20.3 38.7 20.2 38.9 20.1 39.1 19.9 39.4 19.7 39.5 19.3 39.5 18.7 39.5 17.9 39.2 17.4 38.8 17.2 38.5 17 38.1 17 37.3 17H32.7V22.3ZM34.3 19.7V18.3H36.9C37.4 18.3 37.6 18.3 37.7 18.5 37.8 18.6 37.8 18.7 37.8 19.1 37.8 19.6 37.7 19.7 36.9 19.7H34.3Z"/></svg>